<svg xmlns="http://www.w3.org/2000/svg" width="24" height="24" viewBox="0 0 24 24"><g transform="translate(-12829 -5798)"><rect width="24" height="24" transform="translate(12829 5798)" fill="#fff" opacity="0"/><g transform="translate(12828.842 5798)"><circle cx="12" cy="12" r="12" transform="translate(0.158)" fill="#d1d1d1"/><path d="M18.987,4.84a7.308,7.308,0,0,0-.744-3.471,2.375,2.375,0,0,0-1.406-.84A62.349,62.349,0,0,0,9.993.269,62.42,62.42,0,0,0,3.173.521a2.324,2.324,0,0,0-1.194.622,4.417,4.417,0,0,0-.9,2.9,41.708,41.708,0,0,0,0,5.446,8.233,8.233,0,0,0,.245,1.681,2.665,2.665,0,0,0,.581,1.143,2.319,2.319,0,0,0,1.218.656,35.956,35.956,0,0,0,5.315.277c2.862.042,5.372,0,8.34-.235a2.333,2.333,0,0,0,1.251-.656,2.1,2.1,0,0,0,.5-.84,9.117,9.117,0,0,0,.425-2.857C18.987,8.185,18.987,5.345,18.987,4.84ZM8.145,9.16v-5.2l4.841,2.614C11.628,7.345,9.837,8.219,8.145,9.16Z" transform="translate(2.167 5.196)" fill="#252525"/></g></g></svg>