<?xml version="1.0" encoding="utf-8"?>
<!-- Svg Vector Icons : http://www.onlinewebfonts.com/icon -->
<!DOCTYPE svg PUBLIC "-//W3C//DTD SVG 1.1//EN" "http://www.w3.org/Graphics/SVG/1.1/DTD/svg11.dtd">
<svg version="1.1" xmlns="http://www.w3.org/2000/svg" xmlns:xlink="http://www.w3.org/1999/xlink" x="0px" y="0px" viewBox="0 0 256 256" enable-background="new 0 0 256 256" xml:space="preserve">
<metadata> Svg Vector Icons : http://www.onlinewebfonts.com/icon </metadata>
<g><g><g><path fill="#000000" d="M131.2,35.6c-3.6,0.5-8.1,2-12.3,4.2c-3.1,1.6-7.4,5.7-54.8,53.1c-56.8,56.7-54,53.6-54,59.8c0,6-0.6,5.3,31.3,37.1C73,221.5,72,220.6,78,220.6c6.2,0,2.9,3,58.2-52.3c31.5-31.5,51.2-51.5,52.7-53.5c1.3-1.8,3.1-5.1,3.9-7.3c2.5-6.3,2.8-9.5,2.3-21.5c-0.2-5.8-0.4-12.8-0.5-15.6l-0.1-5.1l2.6-0.1c3.5-0.2,9.8,1.1,13.3,2.8c4,1.9,8.3,5.6,11.3,9.5c4.3,5.6,10.2,18.9,11.5,25.6c0.4,2,0.3,2,7.5,0.2c6.6-1.6,6.3-0.8,3.3-10.2c-3.8-11.8-8.9-20.9-15.3-27.7c-15.3-16.1-37.1-17.6-63.4-4.6c-10.4,5.2-21.9,13.3-23.2,16.2c-1.8,4.4,1.2,9,5.9,9c2.3,0,2.1,0.1,10.2-5.7c2.4-1.7,4.6-3,4.8-2.9c0.7,0.4,0,5.6-1.2,8.3c-1.4,3.2-5.4,7-8.5,8c-1.3,0.4-3.7,0.8-5.5,0.8c-13.3,0-19.7-16.4-10.1-25.7c10.7-10.4,34-21.6,49.5-23.8c2.4-0.3,4.4-0.8,4.5-1.1c0.3-1-3-4.1-5.9-5.6l-3.1-1.5l-18.5-0.7c-10.2-0.3-21.2-0.7-24.4-0.8C136.5,35.3,132.7,35.4,131.2,35.6z M91.4,101l1.3,1.2l3.3,35.5c1.8,19.6,3.3,36.4,3.3,37.3c0,4-4.3,6-7.1,3.2l-1.3-1.3l-3.3-35.2c-1.8-19.4-3.3-36.2-3.3-37.3C84.3,100.4,88.4,98.5,91.4,101z M125.5,117.9c3.5,1.6,6.9,5,8.5,8.5c1.1,2.4,1.3,3.4,1.3,7.4s-0.2,5-1.3,7.4c-1.6,3.5-5,6.9-8.5,8.5c-2.4,1.1-3.4,1.3-7.1,1.3c-3.8,0-4.7-0.2-7.4-1.4c-3.7-1.7-7-5-8.8-8.9c-1.1-2.3-1.3-3.4-1.3-6.9c0-3.4,0.2-4.6,1.3-6.8c2.2-4.8,6.1-8.3,11.2-9.9C116.6,116,122.2,116.4,125.5,117.9z M70.3,129c7.6,2.4,12.2,8.6,12.2,16.5c0,6.8-3.6,12.7-9.6,15.7c-2.6,1.3-3.2,1.5-7.6,1.5c-4.4,0-5.1-0.1-7.6-1.4c-10.7-5.4-13.1-19.5-4.7-27.9C57.6,128.5,63.9,126.9,70.3,129z"/><path fill="#000000" d="M116.5,126.9c-3,0.8-5.1,3.7-5.1,7c0,2.8,1.5,5,4,6.2c2.6,1.2,3.4,1.2,6,0c2.4-1.2,4-3.7,4-6.2C125.4,129.4,120.8,125.8,116.5,126.9z"/><path fill="#000000" d="M61.3,139.6c-4.5,3-4.1,9.8,0.7,12.2c6.1,3.1,12.3-3.3,9.4-9.6C69.8,138.9,64.5,137.5,61.3,139.6z"/></g></g></g>
</svg>