<svg xmlns="http://www.w3.org/2000/svg" width="24" height="24" viewBox="0 0 24 24"><g transform="translate(-12743 -5798)"><rect width="24" height="24" transform="translate(12743 5798)" fill="#fff" opacity="0"/><path d="M16.874,3.806a1.32,1.32,0,1,0,.933.387A1.32,1.32,0,0,0,16.874,3.806Zm5.06,2.662A8.347,8.347,0,0,0,21.428,3.8a5.434,5.434,0,0,0-1.276-1.947A5.17,5.17,0,0,0,18.205.583,8.03,8.03,0,0,0,15.532.066C14.366,0,13.992,0,11,0S7.634,0,6.468.066A8.03,8.03,0,0,0,3.8.583,5.258,5.258,0,0,0,1.848,1.848,5.17,5.17,0,0,0,.583,3.8,8.03,8.03,0,0,0,.066,6.468C0,7.634,0,8.008,0,11s0,3.366.066,4.532a8.03,8.03,0,0,0,.517,2.673,5.17,5.17,0,0,0,1.265,1.947A5.258,5.258,0,0,0,3.8,21.417a8.031,8.031,0,0,0,2.673.517C7.634,22,8.008,22,11,22s3.366,0,4.532-.066a8.031,8.031,0,0,0,2.673-.517,5.17,5.17,0,0,0,1.947-1.265,5.336,5.336,0,0,0,1.276-1.947,8.347,8.347,0,0,0,.506-2.673c0-1.166.066-1.54.066-4.532S22,7.634,21.934,6.468ZM19.954,15.4a6.17,6.17,0,0,1-.374,2.046,3.366,3.366,0,0,1-.825,1.265,3.51,3.51,0,0,1-1.265.825,6.17,6.17,0,0,1-2.046.374c-1.1.055-1.507.066-4.4.066s-3.3,0-4.4-.066a6.3,6.3,0,0,1-2.134-.33,3.6,3.6,0,0,1-1.21-.825,3.3,3.3,0,0,1-.814-1.265,6.094,6.094,0,0,1-.44-2.09c0-1.1-.066-1.507-.066-4.4s0-3.3.066-4.4a6.094,6.094,0,0,1,.385-2.09A3.3,3.3,0,0,1,3.3,3.3a3.454,3.454,0,0,1,1.21-.88A6.3,6.3,0,0,1,6.6,2.046c1.1,0,1.507-.066,4.4-.066s3.3,0,4.4.066a6.171,6.171,0,0,1,2.046.374,3.366,3.366,0,0,1,1.309.88,3.365,3.365,0,0,1,.825,1.21,6.17,6.17,0,0,1,.374,2.09c.055,1.1.066,1.507.066,4.4S20.009,14.3,19.954,15.4ZM11,5.357a5.632,5.632,0,1,0,2.165.423A5.643,5.643,0,0,0,11,5.357Zm0,9.306a3.664,3.664,0,1,1,1.4-.279A3.663,3.663,0,0,1,11,14.663Z" transform="translate(12744 5799)" fill="#d1d1d1"/></g></svg>