<svg xmlns="http://www.w3.org/2000/svg" width="180" height="180" viewBox="0 0 180 180"><g transform="translate(-919 -669)"><circle cx="90" cy="90" r="90" transform="translate(919 669)" fill="#f7f8fb"/><g transform="translate(954 704)"><path d="M111.986,89.806a23,23,0,1,1-23-23,23,23,0,0,1,23,23" transform="translate(-2.986 -2.806)"/><path d="M96,101c0-18.457-10.268-34.556-34.921-41.128-2.178-.744-3.03-3.421-.264-5C71.01,50.55,78.129,41.123,78.129,29.791,78.129,14.443,65.088,2,49,2S19.872,14.443,19.872,29.791A27.7,27.7,0,0,0,36.508,54.875c2.952,1.336,2.851,4.348.3,5C12.215,66.494,2,82.91,2,101" transform="translate(-1 -1)" fill="none" stroke="#000" stroke-linecap="round" stroke-linejoin="round" stroke-width="4"/><path d="M79.407,88.871l6,7,12-14" transform="translate(-2.406 -1.871)" fill="none" stroke="#fff" stroke-linecap="round" stroke-linejoin="round" stroke-width="4"/><rect width="110" height="109" fill="none"/></g></g></svg>