<svg xmlns="http://www.w3.org/2000/svg" width="56" height="56" viewBox="0 0 56 56"><g transform="translate(-860 -588)"><circle cx="28" cy="28" r="28" transform="translate(860 588)" fill="#fae100"/><g transform="translate(872 600)"><rect width="32" height="32" fill="#ec1d32" opacity="0"/><path d="M16,3C8.268,3,2,7.623,2,13.326c0,3.712,2.655,6.965,6.642,8.786-.293,1.019-1.061,3.7-1.214,4.266-.19.711.278.7.586.511.241-.15,3.836-2.431,5.387-3.416a18.856,18.856,0,0,0,2.6.178c7.732,0,14-4.623,14-10.325S23.732,3,16,3" transform="translate(0 1)" fill="#371d1e"/></g></g></svg>