<svg xmlns="http://www.w3.org/2000/svg" width="24.061" height="24" viewBox="0 0 24.061 24">
  <g id="그룹_463067" data-name="그룹 463067" transform="translate(-836 -5416)">
    <rect id="가이드" width="24" height="24" transform="translate(836 5416)" fill="#d59b45" opacity="0"/>
    <g id="download">
      <g id="그룹_463066" data-name="그룹 463066" transform="translate(837 5419.045)">
        <path id="패스_15419" data-name="패스 15419" d="M16.521,19.955a6.062,6.062,0,0,0,4.022-1.474c3.635-3.022,1.693-9.084-3.1-9.663C15.732-1.046.5,2.579,4.047,11.974" transform="translate(-0.427 -3)" fill="none" stroke="#111" stroke-linecap="round" stroke-linejoin="round" stroke-width="2"/>
        <path id="패스_15420" data-name="패스 15420" d="M6.782,10.941a4.217,4.217,0,0,0-1.9-.431,3.976,3.976,0,0,0,0,7.95" transform="translate(-1 -1.506)" fill="none" stroke="#111" stroke-linecap="round" stroke-linejoin="round" stroke-width="2"/>
        <path id="패스_15421" data-name="패스 15421" d="M13.462,8.258a4.43,4.43,0,0,1,1.846-.436" transform="translate(1.766 -1.983)" fill="none" stroke="#111" stroke-linecap="round" stroke-linejoin="round" stroke-width="2"/>
      </g>
      <g id="그룹_463065" data-name="그룹 463065" transform="translate(837.187 5419.27)">
        <path id="패스_15437" data-name="패스 15437" d="M0,1V8" transform="translate(10.813 8.73)" fill="none" stroke="#111" stroke-linecap="round" stroke-width="2"/>
        <path id="패스_15422" data-name="패스 15422" d="M7,14.5l4,4,4-4" transform="translate(-0.187 -0.77)" fill="none" stroke="#111" stroke-linecap="round" stroke-linejoin="round" stroke-width="2"/>
      </g>
    </g>
  </g>
</svg>
