<svg id="icon_call" xmlns="http://www.w3.org/2000/svg" width="24" height="24" viewBox="0 0 24 24">
  <rect id="사각형_341640" data-name="사각형 341640" width="24" height="24" fill="#e50025" opacity="0"/>
  <path id="패스_15658" data-name="패스 15658" d="M8.687,9.417a12.542,12.542,0,0,0,2.448,3.448,12.521,12.521,0,0,0,3.448,2.448,1.418,1.418,0,0,0,.229.1.9.9,0,0,0,.741-.126,1.7,1.7,0,0,0,.2-.189,4.3,4.3,0,0,1,.6-.549,1.718,1.718,0,0,1,1.875,0,4.242,4.242,0,0,1,.6.549l.168.168a4.319,4.319,0,0,1,.81.931,1.724,1.724,0,0,1,0,1.552,4.319,4.319,0,0,1-.81.931l-.136.136a4.747,4.747,0,0,1-.993.857A2.889,2.889,0,0,1,16.6,20a3.692,3.692,0,0,1-1.083-.207A16.47,16.47,0,0,1,4.207,8.478,3.692,3.692,0,0,1,4,7.395a2.9,2.9,0,0,1,.33-1.271,4.747,4.747,0,0,1,.857-.993l.136-.136a4.276,4.276,0,0,1,.931-.809,1.718,1.718,0,0,1,1.552,0,4.276,4.276,0,0,1,.931.809l.168.168a4.242,4.242,0,0,1,.549.6,1.718,1.718,0,0,1,0,1.875,4.3,4.3,0,0,1-.549.6,1.875,1.875,0,0,0-.189.2.9.9,0,0,0-.126.741A1.516,1.516,0,0,0,8.687,9.417Z" fill="none" stroke="#111" stroke-linecap="round" stroke-linejoin="round" stroke-width="2"/>
</svg>
